<mxfile host="65bd71144e">
    <diagram id="PAKm86orNQraGQCCFK2e" name="ページ1">
        <mxGraphModel dx="522" dy="569" grid="1" gridSize="10" guides="1" tooltips="1" connect="1" arrows="1" fold="1" page="1" pageScale="1" pageWidth="583" pageHeight="413" math="0" shadow="0">
            <root>
                <mxCell id="0"/>
                <mxCell id="1" parent="0"/>
                <mxCell id="2" value="" style="endArrow=none;html=1;" parent="1" edge="1">
                    <mxGeometry width="50" height="50" relative="1" as="geometry">
                        <mxPoint x="10" y="240" as="sourcePoint"/>
                        <mxPoint x="10" y="10" as="targetPoint"/>
                    </mxGeometry>
                </mxCell>
                <mxCell id="3" value="" style="endArrow=none;html=1;" parent="1" edge="1">
                    <mxGeometry width="50" height="50" relative="1" as="geometry">
                        <mxPoint x="10" y="40" as="sourcePoint"/>
                        <mxPoint x="50" y="40" as="targetPoint"/>
                    </mxGeometry>
                </mxCell>
                <mxCell id="4" value="" style="endArrow=none;html=1;" parent="1" edge="1">
                    <mxGeometry width="50" height="50" relative="1" as="geometry">
                        <mxPoint x="10" y="157" as="sourcePoint"/>
                        <mxPoint x="50" y="157" as="targetPoint"/>
                    </mxGeometry>
                </mxCell>
                <mxCell id="7" value="&lt;div style=&quot;text-align: left;&quot;&gt;&lt;span style=&quot;font-size: 18px; background-color: initial;&quot;&gt;dev&lt;/span&gt;&lt;/div&gt;" style="text;html=1;strokeColor=none;fillColor=none;align=center;verticalAlign=middle;whiteSpace=wrap;rounded=0;" parent="1" vertex="1">
                    <mxGeometry x="55" y="30" width="30" height="15" as="geometry"/>
                </mxCell>
                <mxCell id="9" value="" style="endArrow=none;html=1;fontSize=16;" parent="1" edge="1">
                    <mxGeometry width="50" height="50" relative="1" as="geometry">
                        <mxPoint x="70" y="80" as="sourcePoint"/>
                        <mxPoint x="70" y="50" as="targetPoint"/>
                    </mxGeometry>
                </mxCell>
                <mxCell id="12" value="" style="endArrow=none;html=1;" parent="1" edge="1">
                    <mxGeometry width="50" height="50" relative="1" as="geometry">
                        <mxPoint x="70" y="80" as="sourcePoint"/>
                        <mxPoint x="110" y="80" as="targetPoint"/>
                    </mxGeometry>
                </mxCell>
                <mxCell id="21" value="" style="endArrow=none;html=1;fontSize=16;" parent="1" edge="1">
                    <mxGeometry width="50" height="50" relative="1" as="geometry">
                        <mxPoint x="70" y="200" as="sourcePoint"/>
                        <mxPoint x="70" y="170" as="targetPoint"/>
                    </mxGeometry>
                </mxCell>
                <mxCell id="22" value="" style="endArrow=none;html=1;" parent="1" edge="1">
                    <mxGeometry width="50" height="50" relative="1" as="geometry">
                        <mxPoint x="69.5" y="200" as="sourcePoint"/>
                        <mxPoint x="109.5" y="200" as="targetPoint"/>
                    </mxGeometry>
                </mxCell>
                <mxCell id="26" value="" style="sketch=0;aspect=fixed;pointerEvents=1;shadow=0;dashed=0;html=1;strokeColor=none;labelPosition=center;verticalLabelPosition=bottom;verticalAlign=top;align=center;fillColor=#00188D;shape=mxgraph.mscae.enterprise.application;fontSize=16;" parent="1" vertex="1">
                    <mxGeometry x="110" y="171" width="80.88" height="55" as="geometry"/>
                </mxCell>
                <mxCell id="29" value="開発用のコンテナ" style="swimlane;strokeColor=#b85450;fontSize=16;fillColor=#f8cecc;" parent="1" vertex="1">
                    <mxGeometry x="270" y="120" width="220" height="117" as="geometry"/>
                </mxCell>
                <mxCell id="30" value="Bash 環境" style="swimlane;strokeColor=#d6b656;fontSize=16;fillColor=#fff2cc;" parent="29" vertex="1">
                    <mxGeometry x="35" y="28.5" width="150" height="80" as="geometry"/>
                </mxCell>
                <mxCell id="37" value="目的の環境構築" style="text;html=1;strokeColor=none;fillColor=none;align=center;verticalAlign=middle;whiteSpace=wrap;rounded=0;fontSize=16;fontColor=#FF0000;" parent="30" vertex="1">
                    <mxGeometry x="15" y="36" width="120" height="30" as="geometry"/>
                </mxCell>
                <mxCell id="34" value="" style="shape=flexArrow;endArrow=classic;html=1;fontSize=16;fillColor=#d5e8d4;strokeColor=#82b366;" parent="1" edge="1">
                    <mxGeometry width="50" height="50" relative="1" as="geometry">
                        <mxPoint x="211.76" y="198" as="sourcePoint"/>
                        <mxPoint x="250" y="198" as="targetPoint"/>
                    </mxGeometry>
                </mxCell>
                <mxCell id="35" value="&lt;font color=&quot;#ff0000&quot;&gt;起動&lt;/font&gt;" style="text;html=1;strokeColor=none;fillColor=none;align=center;verticalAlign=middle;whiteSpace=wrap;rounded=0;fontSize=16;" parent="1" vertex="1">
                    <mxGeometry x="210" y="160" width="40" height="20" as="geometry"/>
                </mxCell>
                <mxCell id="55" style="edgeStyle=orthogonalEdgeStyle;html=1;dashed=1;dashPattern=1 1;fontSize=14;startArrow=classicThin;startFill=1;endArrow=classicThin;endFill=1;" parent="1" source="37" edge="1">
                    <mxGeometry relative="1" as="geometry">
                        <mxPoint x="220" y="60" as="targetPoint"/>
                        <Array as="points">
                            <mxPoint x="520" y="200"/>
                            <mxPoint x="520" y="60"/>
                            <mxPoint x="240" y="60"/>
                        </Array>
                    </mxGeometry>
                </mxCell>
                <mxCell id="56" value="&lt;font style=&quot;&quot;&gt;&lt;font size=&quot;1&quot; style=&quot;&quot;&gt;&lt;i style=&quot;&quot;&gt;&lt;u style=&quot;font-size: 16px;&quot;&gt;ホスト環境のディレクトリを利用&lt;/u&gt;&lt;/i&gt;&lt;/font&gt;&lt;br&gt;&lt;/font&gt;" style="edgeLabel;html=1;align=center;verticalAlign=middle;resizable=0;points=[];fontSize=14;" parent="55" vertex="1" connectable="0">
                    <mxGeometry x="0.6086" relative="1" as="geometry">
                        <mxPoint x="49" as="offset"/>
                    </mxGeometry>
                </mxCell>
                <mxCell id="59" value="&lt;div style=&quot;&quot;&gt;&lt;span style=&quot;font-size: 18px; background-color: initial;&quot;&gt;dit&lt;/span&gt;&lt;/div&gt;" style="text;html=1;strokeColor=none;fillColor=none;align=left;verticalAlign=middle;whiteSpace=wrap;rounded=0;" parent="1" vertex="1">
                    <mxGeometry x="55" y="150" width="25" height="15" as="geometry"/>
                </mxCell>
                <mxCell id="60" value="&lt;font style=&quot;font-size: 16px;&quot;&gt;開発中の&lt;br&gt;Dockerfile&lt;/font&gt;" style="shape=note;whiteSpace=wrap;html=1;backgroundOutline=1;darkOpacity=0.05;size=22;" parent="1" vertex="1">
                    <mxGeometry x="110.88" y="30" width="80" height="100" as="geometry"/>
                </mxCell>
            </root>
        </mxGraphModel>
    </diagram>
</mxfile>